<svg xmlns="http://www.w3.org/2000/svg" viewBox="0 0 500 142.979" role="img" aria-label="GR8">
  <title>GR8</title>
  <g fill="#D2F446" transform="translate(0 142.979) scale(1 -1)">
    <path transform="translate(162.5872 140.1129)" d="M 0 0 C -1.789 -2.797 -4.206 -5.477 -6.453 -7.947 C -11.882 -13.916 -18.116 -20.449 -23.93 -26.023 C -30.898 -32.705 -36.952 -31.517 -45.992 -31.769 C -69.638 -32.43 -93.411 -31.703 -117.093 -31.979 C -123.41 -32.057 -124.495 -37.867 -124.751 -42.991 C -125.305 -54.05 -124.674 -66.047 -124.536 -77.151 C -124.444 -84.561 -126.11 -98.309 -119.87 -103.469 C -113.542 -108.703 -94.637 -107.659 -86.515 -107.637 C -68.271 -107.586 -50.023 -107.694 -31.782 -107.646 L -31.782 -89.374 L -79.454 -89.374 L -78.819 -87.725 C -72.935 -79.804 -68.431 -69.526 -62.337 -61.901 C -60.732 -59.892 -58.558 -58.504 -55.925 -58.382 L -3.876 -58.394 C -2.101 -58.645 -0.099 -58.885 1.191 -60.279 C 1.38 -60.483 2.384 -62.148 2.384 -62.264 L 2.384 -137.239 L -120.48 -137.247 C -141.428 -135.976 -156.976 -120.529 -158.3 -99.591 C -158.324 -99.221 -158.255 -98.847 -158.709 -98.709 L -158.709 -35.352 C -158.012 -34.703 -158.398 -33.543 -158.31 -32.674 C -156.325 -13.092 -139.808 1.03 -120.059 -0.207 L -119.578 0 Z"/>
    <path transform="translate(395.5454 60.2136)" d="M 0 0 C -12.116 -0.129 -26.849 -0.502 -25.78 -16.722 C -24.983 -28.809 -16.355 -29.735 -6.417 -30.132 C 7.554 -30.691 21.513 -29.709 35.505 -29.725 C 42.476 -29.732 49.578 -30.283 56.551 -29.731 C 65.035 -29.06 71.26 -26.059 71.944 -16.721 C 73.318 2.022 52.901 -0.163 40.274 -0.15 C 26.862 -0.136 13.4 0.142 0 0 M 10.329 53.029 C 4.435 52.972 -2.212 53.255 -8.012 52.897 C -16.342 52.382 -21.529 48.282 -21.21 39.484 C -20.765 27.217 -5.855 26.99 3.128 26.68 C 15.856 26.242 29.105 26.493 41.845 26.879 C 48.66 27.085 58.237 26.911 63.698 31.643 C 69.36 36.55 68.414 47.731 61.553 51.136 C 55.848 53.967 43.537 52.811 36.879 52.88 C 28.044 52.972 19.194 53.114 10.329 53.029 M 64.995 79.899 L 70.955 79.007 C 90.407 74.868 97.147 56.219 95.98 38.094 C 95.493 30.542 90.698 22.987 84.638 18.65 L 79.695 15.751 C 92.202 12.598 100.212 -0.507 100.348 -12.953 C 100.352 -13.289 100.221 -13.836 100.55 -14.043 C 100.489 -15.955 100.633 -17.892 100.55 -19.802 C 99.61 -41.377 86.695 -56.02 64.705 -57.348 L -18.728 -57.338 C -36.913 -56.252 -50.299 -45.265 -53.528 -27.188 C -56.339 -11.45 -53.183 6.765 -37.572 14.33 L -33.53 15.945 C -42.379 19.563 -49.249 28.857 -49.825 38.481 C -51.081 59.47 -41.643 78.491 -18.829 79.899 Z"/>
    <path transform="translate(301.0359 140.1129)" d="M 0 0 C 17.3 -2.373 31.007 -15.182 34.301 -32.337 C 37.982 -51.505 34.309 -71.541 17.542 -83.18 C 8.185 -89.677 -3.41 -91.881 -14.698 -91.061 L 32.972 -137.238 L 3.081 -137.237 C -21.759 -136.634 -33.148 -114.528 -48.462 -99.001 C -58.587 -88.735 -71.506 -88.775 -85.016 -90.764 L -85.016 -137.239 L -119.777 -137.239 L -119.777 -58.391 L -11.422 -58.391 C -9.114 -58.391 -5.078 -56.489 -3.374 -54.918 C 3.14 -48.909 0.525 -34.434 -8.218 -32.15 C -11.774 -31.221 -17.582 -31.485 -21.361 -31.571 C -45.438 -32.119 -69.559 -31.996 -93.665 -31.985 C -95.583 -31.85 -98.102 -31.056 -99.402 -29.578 L -118.188 0 Z"/>
  </g>
</svg>
